<svg xmlns="http://www.w3.org/2000/svg" width="256" height="256" viewBox="0 0 256 256" role="img" aria-label="Swagger">
  <circle cx="128" cy="128" r="128" fill="#85ea2d"/>
  <path fill="#173647" d="M128 24C70.56 24 24 70.56 24 128s46.56 104 104 104 104-46.56 104-104S185.44 24 128 24zm0 16c48.6 0 88 39.4 88 88s-39.4 88-88 88-88-39.4-88-88 39.4-88 88-88z" opacity="0"/>
  <path fill="#173647" d="M84.7 95.3c.2-3.6.2-7.1.2-10.6 0-12.6 4.9-17.6 16.9-17.6h4.4v11.7h-2.4c-5.7 0-7.6 2-7.6 7.7 0 4.2-.1 8.4-.5 12.7-.4 4.1-2 7.6-5.5 10.4 3.5 2.6 5.1 6.2 5.5 10.3.4 4.3.5 8.5.5 12.8 0 5.6 1.9 7.6 7.6 7.6h2.4v11.8h-4.4c-12 0-16.9-5-16.9-17.6 0-3.5 0-7-.2-10.5-.3-6-1.9-7.8-7.8-8.1v-12c5.9-.4 7.5-2.2 7.8-8.2zM128 121.6c4.1 0 7 3.1 7 7.2 0 4-3 7.1-7 7.1-4.1 0-7.1-3.2-7-7.2 0-4 3-7.1 7-7.1zm-26 0c4.1 0 7 3.1 7 7.2 0 4-3 7.1-7 7.1-4.1 0-7.1-3.2-7-7.2 0-4 3-7.1 7-7.1zm52 0c4.1 0 7 3.1 7 7.2 0 4-3 7.1-7 7.1-4.1 0-7.1-3.2-7-7.2 0-4 3-7.1 7-7.1zm17.3-26.3c.3 6 1.9 7.8 7.8 8.2v12c-5.9.3-7.5 2.1-7.8 8.1-.2 3.5-.2 7-.2 10.5 0 12.6-4.9 17.6-16.9 17.6h-4.4v-11.8h2.4c5.7 0 7.6-2 7.6-7.6 0-4.3.1-8.5.5-12.8.4-4.1 2-7.7 5.5-10.3-3.5-2.8-5.1-6.3-5.5-10.4-.4-4.3-.5-8.5-.5-12.7 0-5.7-1.9-7.7-7.6-7.7h-2.4V67.1h4.4c12 0 16.9 5 16.9 17.6 0 3.5 0 7 .2 10.6z"/>
</svg>
